<?xml version="1.0" encoding="utf-8"?>
<!-- Generator: Adobe Illustrator 27.0.0, SVG Export Plug-In . SVG Version: 6.00 Build 0)  -->
<svg version="1.1" id="Capa_1" xmlns="http://www.w3.org/2000/svg" xmlns:xlink="http://www.w3.org/1999/xlink" x="0px" y="0px"
	 viewBox="0 0 512 512" style="enable-background:new 0 0 512 512;" xml:space="preserve">
<style type="text/css">
	.st0{fill:none;stroke:#000000;stroke-width:3.6773;stroke-miterlimit:10;}
	.st1{fill:#FDD204;}
	.st2{fill:#FFFFFF;}
	.st3{fill:none;stroke:#000000;stroke-width:3.6773;stroke-linecap:round;stroke-miterlimit:10;}
</style>
<g>
	<line class="st0" x1="64.2" y1="447.8" x2="448.3" y2="447.8"/>
	<g>
		<g>
			<path class="st1" d="M180.2,277.8c0-14.5,11.8-26.3,26.3-26.3h106.3v-63.1c0-14.5,11.8-26.3,26.3-26.3h75.2
				c14.5,0,26.3,11.8,26.3,26.3V441l-260.4,0.5L180.2,277.8L180.2,277.8z"/>
			<path class="st2" d="M414.3,168.3c11.1,0,20.2,9,20.2,20.2V435l-248.1,0.5v-20.1V277.8c0-11.1,9-20.2,20.2-20.2h100.2H319v-12.3
				v-56.9c0-11.1,9-20.2,20.2-20.2h75.1 M414.3,156h-75.2c-17.8,0-32.4,14.6-32.4,32.4v56.9H206.5c-17.8,0-32.4,14.6-32.4,32.4
				v137.5v32.4l272.6-0.5V188.5C446.7,170.6,432.1,156,414.3,156L414.3,156z"/>
		</g>
		<g>
			<rect x="186.5" y="408.4" class="st1" width="247.9" height="39.6"/>
		</g>
		<path class="st0" d="M174.1,415.3V277.8c0-17.8,14.6-32.4,32.4-32.4h100.2v-56.9c0-17.8,14.6-32.4,32.4-32.4h75.2
			c17.8,0,32.4,14.6,32.4,32.4v258.7l-272.6,0.5L174.1,415.3L174.1,415.3z"/>
		<g>
			<path class="st2" d="M366.3,247.2c-4.4,0-8-3.6-8-8v-25.6c0-4.4,3.6-8,8-8h23.4c4.4,0,8,3.6,8,8v25.6c0,4.4-3.6,8-8,8H366.3z"/>
			<path d="M389.7,207.5c3.4,0,6.1,2.7,6.1,6.1v25.6c0,3.4-2.7,6.1-6.1,6.1h-23.4c-3.4,0-6.1-2.7-6.1-6.1v-25.6
				c0-3.4,2.7-6.1,6.1-6.1H389.7 M389.7,203.8h-23.4c-5.4,0-9.8,4.4-9.8,9.8v25.6c0,5.4,4.4,9.8,9.8,9.8h23.4c5.4,0,9.8-4.4,9.8-9.8
				v-25.6C399.5,208.2,395.1,203.8,389.7,203.8L389.7,203.8z"/>
		</g>
		<g>
			<path class="st2" d="M366.3,331.5c-4.4,0-8-3.6-8-8V298c0-4.4,3.6-8,8-8h23.4c4.4,0,8,3.6,8,8v25.6c0,4.4-3.6,8-8,8h-23.4V331.5z
				"/>
			<path d="M389.7,291.8c3.4,0,6.1,2.7,6.1,6.1v25.6c0,3.4-2.7,6.1-6.1,6.1h-23.4c-3.4,0-6.1-2.7-6.1-6.1V298c0-3.4,2.7-6.1,6.1-6.1
				h23.4 M389.7,288.2h-23.4c-5.4,0-9.8,4.4-9.8,9.8v25.6c0,5.4,4.4,9.8,9.8,9.8h23.4c5.4,0,9.8-4.4,9.8-9.8V298
				C399.5,292.5,395.1,288.2,389.7,288.2L389.7,288.2z"/>
		</g>
		<g>
			<path class="st2" d="M300.7,331.5c-4.4,0-8-3.6-8-8V298c0-4.4,3.6-8,8-8h23.4c4.4,0,8,3.6,8,8v25.6c0,4.4-3.6,8-8,8h-23.4V331.5z
				"/>
			<path d="M324.1,291.8c3.4,0,6.1,2.7,6.1,6.1v25.6c0,3.4-2.7,6.1-6.1,6.1h-23.4c-3.4,0-6.1-2.7-6.1-6.1V298c0-3.4,2.7-6.1,6.1-6.1
				h23.4 M324.1,288.2h-23.4c-5.4,0-9.8,4.4-9.8,9.8v25.6c0,5.4,4.4,9.8,9.8,9.8h23.4c5.4,0,9.8-4.4,9.8-9.8V298
				C333.9,292.5,329.6,288.2,324.1,288.2L324.1,288.2z"/>
		</g>
		<g>
			<path class="st2" d="M235.2,331.5c-4.4,0-8-3.6-8-8V298c0-4.4,3.6-8,8-8h23.4c4.4,0,8,3.6,8,8v25.6c0,4.4-3.6,8-8,8h-23.4V331.5z
				"/>
			<path d="M258.6,291.8c3.4,0,6.1,2.7,6.1,6.1v25.6c0,3.4-2.7,6.1-6.1,6.1h-23.4c-3.4,0-6.1-2.7-6.1-6.1V298c0-3.4,2.7-6.1,6.1-6.1
				h23.4 M258.6,288.2h-23.4c-5.4,0-9.8,4.4-9.8,9.8v25.6c0,5.4,4.4,9.8,9.8,9.8h23.4c5.4,0,9.8-4.4,9.8-9.8V298
				C268.4,292.5,264,288.2,258.6,288.2L258.6,288.2z"/>
		</g>
		<g>
			<path class="st2" d="M300.7,415.9c-4.4,0-8-3.6-8-8v-25.6c0-4.4,3.6-8,8-8h23.4c4.4,0,8,3.6,8,8v25.6c0,4.4-3.6,8-8,8H300.7z"/>
			<path d="M324.1,376.2c3.4,0,6.1,2.7,6.1,6.1v25.6c0,3.4-2.7,6.1-6.1,6.1h-23.4c-3.4,0-6.1-2.7-6.1-6.1v-25.6
				c0-3.4,2.7-6.1,6.1-6.1H324.1 M324.1,372.5h-23.4c-5.4,0-9.8,4.4-9.8,9.8v25.6c0,5.4,4.4,9.8,9.8,9.8h23.4c5.4,0,9.8-4.4,9.8-9.8
				v-25.6C333.9,376.9,329.6,372.5,324.1,372.5L324.1,372.5z"/>
		</g>
		<g>
			<path class="st2" d="M235.2,415.9c-4.4,0-8-3.6-8-8v-25.6c0-4.4,3.6-8,8-8h23.4c4.4,0,8,3.6,8,8v25.6c0,4.4-3.6,8-8,8H235.2z"/>
			<path d="M258.6,376.2c3.4,0,6.1,2.7,6.1,6.1v25.6c0,3.4-2.7,6.1-6.1,6.1h-23.4c-3.4,0-6.1-2.7-6.1-6.1v-25.6
				c0-3.4,2.7-6.1,6.1-6.1H258.6 M258.6,372.5h-23.4c-5.4,0-9.8,4.4-9.8,9.8v25.6c0,5.4,4.4,9.8,9.8,9.8h23.4c5.4,0,9.8-4.4,9.8-9.8
				v-25.6C268.4,376.9,264,372.5,258.6,372.5L258.6,372.5z"/>
		</g>
		<g>
			<path class="st2" d="M366.3,415.9c-4.4,0-8-3.6-8-8v-25.6c0-4.4,3.6-8,8-8h23.4c4.4,0,8,3.6,8,8v25.6c0,4.4-3.6,8-8,8H366.3z"/>
			<path d="M389.7,376.2c3.4,0,6.1,2.7,6.1,6.1v25.6c0,3.4-2.7,6.1-6.1,6.1h-23.4c-3.4,0-6.1-2.7-6.1-6.1v-25.6
				c0-3.4,2.7-6.1,6.1-6.1H389.7 M389.7,372.5h-23.4c-5.4,0-9.8,4.4-9.8,9.8v25.6c0,5.4,4.4,9.8,9.8,9.8h23.4c5.4,0,9.8-4.4,9.8-9.8
				v-25.6C399.5,376.9,395.1,372.5,389.7,372.5L389.7,372.5z"/>
		</g>
	</g>
	<g>
		<g>
			<circle class="st1" cx="139.6" cy="156.1" r="74.4"/>
		</g>
		<g>
			<path d="M139.6,84.5c39.5,0,71.6,32.1,71.6,71.6s-32.1,71.6-71.6,71.6S68,195.5,68,156.1C68,116.6,100.1,84.5,139.6,84.5
				 M139.6,80.8c-41.6,0-75.3,33.7-75.3,75.3s33.7,75.3,75.3,75.3s75.3-33.7,75.3-75.3C214.8,114.5,181.1,80.8,139.6,80.8
				L139.6,80.8z"/>
		</g>
		<line class="st3" x1="139.6" y1="139.6" x2="139.6" y2="446.8"/>
		<line class="st3" x1="112.2" y1="142.4" x2="139.3" y2="170.2"/>
		<line class="st3" x1="168.4" y1="154.7" x2="139.9" y2="186"/>
	</g>
</g>
</svg>
