<?xml version="1.0" encoding="utf-8"?>
<!-- Generator: Adobe Illustrator 27.0.0, SVG Export Plug-In . SVG Version: 6.00 Build 0)  -->
<svg version="1.1" id="Capa_1" xmlns="http://www.w3.org/2000/svg" xmlns:xlink="http://www.w3.org/1999/xlink" x="0px" y="0px"
	 viewBox="0 0 512 512" style="enable-background:new 0 0 512 512;" xml:space="preserve">
<style type="text/css">
	.st0{fill:#FDD204;}
	.st1{fill:#FFFFFF;}
	.st2{fill:none;stroke:#000000;stroke-width:3.6773;stroke-linecap:round;stroke-miterlimit:10;}
	.st3{fill:none;stroke:#000000;stroke-width:3.6773;stroke-miterlimit:10;}
	.st4{fill:none;stroke:#060707;stroke-width:3.6773;stroke-miterlimit:10;}
</style>
<g>
	<g>
		<g>
			<path class="st0" d="M164.7,442v-16.1c0-3.9,3.1-7,7-7h17.4V241.2h-15.4c-6.5,0-11.7-5.3-11.7-11.7c0-4.3,2.4-8.3,6.2-10.2
				L281,159.9c3.2-1.7,6.8-2.6,10.4-2.6s7.2,0.9,10.4,2.6l112.8,59.4c3.8,2,6.3,6,6.3,10.3c0,6.5-5.2,11.7-11.6,11.7h-14V419h14.3
				c3.9,0,7,3.1,7,7v16H164.7z M312.3,418.5h42.1V241.2h-42.1V418.5z M227.8,418.5h44.7V241.2h-44.7V418.5z"/>
			<path class="st1" d="M291.4,163.4c2.6,0,5.2,0.6,7.5,1.9l0,0l0,0l112.7,59.4h0.1h0.1c1.7,0.9,2.9,2.8,2.9,4.8
				c0,3-2.5,5.6-5.4,5.6h-7.9h-12.3v12.3v165.4V425h12.3h8.1c0.5,0,0.9,0.4,0.9,0.9v10H170.8v-10c0-0.5,0.4-0.9,0.9-0.9h11.2h12.3
				v-12.3V247.4v-12.3h-12.3h-9.3c-3.1,0-5.6-2.5-5.6-5.6c0-2,1.2-3.9,2.9-4.8h0.1h0.1l112.7-59.4l0,0l0,0
				C286.2,164,288.8,163.4,291.4,163.4 M306.2,424.6h12.3h29.8h12.3v-12.3v-165V235h-12.3h-29.8h-12.3v12.3v165V424.6 M221.7,424.6
				H234h32.4h12.3v-12.3v-165V235h-12.3H234h-12.3v12.3v165V424.6 M291.4,151.1c-4.6,0-9.1,1.1-13.3,3.3l-112.7,59.4
				c-5.9,3-9.6,9.1-9.6,15.7c0,9.8,8,17.8,17.8,17.8h9.3v165.4h-11.2c-7.3,0-13.1,5.9-13.1,13.1V448h264.1v-22.2
				c0-7.3-5.9-13.1-13.1-13.1h-8.1V247.4h7.9c9.7,0,17.7-8,17.7-17.8c0-6.6-3.7-12.7-9.6-15.7l-112.7-59.4
				C300.5,152.2,296,151.1,291.4,151.1L291.4,151.1z M318.4,412.4v-165h29.8v165H318.4L318.4,412.4z M233.9,412.4v-165h32.4v165
				H233.9L233.9,412.4z"/>
		</g>
		<path class="st2" d="M164,278.1"/>
		<g>
			<path class="st1" d="M291.4,220.6c-9,0-16.3-7.3-16.3-16.3s7.3-16.3,16.3-16.3s16.3,7.3,16.3,16.3S300.4,220.6,291.4,220.6z"/>
			<path d="M291.4,189.8c8,0,14.5,6.5,14.5,14.5s-6.5,14.5-14.5,14.5s-14.5-6.5-14.5-14.5S283.4,189.8,291.4,189.8 M291.4,186.1
				c-10,0-18.2,8.1-18.2,18.2c0,10,8.1,18.2,18.2,18.2c10,0,18.2-8.1,18.2-18.2C309.6,194.3,301.5,186.1,291.4,186.1L291.4,186.1z"
				/>
		</g>
		<g>
			<path class="st0" d="M422.7,448.5H158.6v-23.6c0-6.8,5.5-12.4,12.4-12.4h239.5c6.8,0,12.4,5.5,12.4,12.4v23.6H422.7z"/>
		</g>
		<g>
			<rect x="219.8" y="233.2" class="st0" width="13.2" height="164.3"/>
		</g>
		<g>
			<rect x="267.9" y="233.2" class="st0" width="13.2" height="166.1"/>
		</g>
		<g>
			<rect x="303.7" y="233.2" class="st0" width="13.2" height="166.1"/>
		</g>
		<g>
			<rect x="347.7" y="233.2" class="st0" width="13.2" height="164.3"/>
		</g>
		<g>
			<rect x="222.3" y="233.2" class="st0" width="135.9" height="12.4"/>
		</g>
		<g>
			<path class="st3" d="M182.9,247.4v165 M401.4,412.4v-165 M318.4,412.4v-165 M348.3,247.4v165 M233.9,412.4v-165 M266.3,247.4v165
				"/>
			<path class="st3" d="M182.9,412.4h-11.2c-7.3,0-13.1,6.3-13.1,13.5v22.2h264.1v-22.2c0-7.3-5.9-13.5-13.1-13.5h-8.1H182.9z
				 M401.4,247.4h7.9c9.7,0,17.7-8,17.7-17.8c0-6.6-3.7-12.7-9.6-15.7l-112.7-59.4c-8.3-4.4-18.3-4.4-26.5,0l-112.7,59.4
				c-5.9,3-9.6,9.1-9.6,15.7c0,9.8,8,17.8,17.8,17.8h9.3H401.4z"/>
		</g>
		<g>
			<path class="st0" d="M187.1,412.4c-5.3,0-9.7-4.3-9.7-9.7s4.3-9.7,9.7-9.7h43.1c5.3,0,9.7,4.3,9.7,9.7s-4.3,9.7-9.7,9.7H187.1z"
				/>
			<g>
				<path d="M230.2,394.9c4.3,0,7.8,3.5,7.8,7.8s-3.5,7.8-7.8,7.8h-43.1c-4.3,0-7.8-3.5-7.8-7.8s3.5-7.8,7.8-7.8H230.2 M230.2,391.2
					h-43.1c-6.3,0-11.5,5.2-11.5,11.5s5.2,11.5,11.5,11.5h43.1c6.3,0,11.5-5.2,11.5-11.5C241.7,396.4,236.5,391.2,230.2,391.2
					L230.2,391.2z"/>
			</g>
		</g>
		<g>
			<path class="st0" d="M270.1,412.4c-5.3,0-9.7-4.3-9.7-9.7s4.3-9.7,9.7-9.7h43.1c5.3,0,9.7,4.3,9.7,9.7s-4.3,9.7-9.7,9.7H270.1z"
				/>
			<g>
				<path d="M313.2,394.9c4.3,0,7.8,3.5,7.8,7.8s-3.5,7.8-7.8,7.8h-43.1c-4.3,0-7.8-3.5-7.8-7.8s3.5-7.8,7.8-7.8H313.2 M313.2,391.2
					h-43.1c-6.3,0-11.5,5.2-11.5,11.5s5.2,11.5,11.5,11.5h43.1c6.3,0,11.5-5.2,11.5-11.5C324.7,396.4,319.6,391.2,313.2,391.2
					L313.2,391.2z"/>
			</g>
		</g>
		<g>
			<path class="st0" d="M354,412.4c-5.3,0-9.7-4.3-9.7-9.7s4.3-9.7,9.7-9.7h43.1c5.3,0,9.7,4.3,9.7,9.7s-4.3,9.7-9.7,9.7H354z"/>
			<g>
				<path d="M397.1,394.9c4.3,0,7.8,3.5,7.8,7.8s-3.5,7.8-7.8,7.8H354c-4.3,0-7.8-3.5-7.8-7.8s3.5-7.8,7.8-7.8H397.1 M397.1,391.2
					H354c-6.3,0-11.5,5.2-11.5,11.5s5.2,11.5,11.5,11.5h43.1c6.3,0,11.5-5.2,11.5-11.5C408.6,396.4,403.4,391.2,397.1,391.2
					L397.1,391.2z"/>
			</g>
		</g>
		<g>
			<path class="st0" d="M187.1,266.7c-5.3,0-9.7-4.3-9.7-9.7s4.3-9.7,9.7-9.7h43.1c5.3,0,9.7,4.3,9.7,9.7s-4.3,9.7-9.7,9.7H187.1z"
				/>
			<g>
				<path d="M230.2,249.2c4.3,0,7.8,3.5,7.8,7.8c0,4.3-3.5,7.8-7.8,7.8h-43.1c-4.3,0-7.8-3.5-7.8-7.8c0-4.3,3.5-7.8,7.8-7.8H230.2
					 M230.2,245.5h-43.1c-6.3,0-11.5,5.2-11.5,11.5c0,6.3,5.2,11.5,11.5,11.5h43.1c6.3,0,11.5-5.2,11.5-11.5
					C241.7,250.7,236.6,245.5,230.2,245.5L230.2,245.5z"/>
			</g>
		</g>
		<g>
			<path class="st0" d="M270.2,266.7c-5.3,0-9.7-4.3-9.7-9.7s4.3-9.7,9.7-9.7h43.1c5.3,0,9.7,4.3,9.7,9.7s-4.3,9.7-9.7,9.7H270.2z"
				/>
			<g>
				<path d="M313.3,249.2c4.3,0,7.8,3.5,7.8,7.8c0,4.3-3.5,7.8-7.8,7.8h-43.1c-4.3,0-7.8-3.5-7.8-7.8c0-4.3,3.5-7.8,7.8-7.8H313.3
					 M313.3,245.5h-43.1c-6.3,0-11.5,5.2-11.5,11.5c0,6.3,5.2,11.5,11.5,11.5h43.1c6.3,0,11.5-5.2,11.5-11.5
					C324.8,250.7,319.6,245.5,313.3,245.5L313.3,245.5z"/>
			</g>
		</g>
		<g>
			<path class="st0" d="M354,266.7c-5.3,0-9.7-4.3-9.7-9.7s4.3-9.7,9.7-9.7h43.1c5.3,0,9.7,4.3,9.7,9.7s-4.3,9.7-9.7,9.7H354z"/>
			<g>
				<path d="M397.1,249.2c4.3,0,7.8,3.5,7.8,7.8c0,4.3-3.5,7.8-7.8,7.8H354c-4.3,0-7.8-3.5-7.8-7.8c0-4.3,3.5-7.8,7.8-7.8H397.1
					 M397.1,245.5H354c-6.3,0-11.5,5.2-11.5,11.5c0,6.3,5.2,11.5,11.5,11.5h43.1c6.3,0,11.5-5.2,11.5-11.5
					C408.6,250.7,403.5,245.5,397.1,245.5L397.1,245.5z"/>
			</g>
		</g>
	</g>
	<g>
		<g>
			<path class="st0" d="M116.2,66.2L116.2,66.2c-3.1,0-5.5,2.5-5.5,5.5v110.6c-4.7-3-10.4-4.8-16.7-4.8c-15.6,0-28.3,11-28.3,24.6
				s12.7,24.6,28.3,24.6c15.2,0,27.6-10.5,28.2-23.6h0.1V102.8h74.4v79.4c-4.7-3-10.4-4.8-16.7-4.8c-15.6,0-28.3,11-28.3,24.6
				s12.7,24.6,28.3,24.6c15.2,0,27.6-10.5,28.2-23.6h0.1V73.3c0-4-3.2-7.2-7.2-7.2L116.2,66.2L116.2,66.2z"/>
		</g>
		<path class="st4" d="M116.2,66.2L116.2,66.2c-3.1,0-5.5,2.5-5.5,5.5v110.6c-4.7-3-10.4-4.8-16.7-4.8c-15.6,0-28.3,11-28.3,24.6
			s12.7,24.6,28.3,24.6c15.2,0,27.6-10.5,28.2-23.6h0.1V102.8h74.4v79.4c-4.7-3-10.4-4.8-16.7-4.8c-15.6,0-28.3,11-28.3,24.6
			s12.7,24.6,28.3,24.6c15.2,0,27.6-10.5,28.2-23.6h0.1V73.3c0-4-3.2-7.2-7.2-7.2L116.2,66.2L116.2,66.2z"/>
	</g>
	<line class="st3" x1="64.1" y1="447.8" x2="448.2" y2="447.8"/>
</g>
</svg>
