<?xml version="1.0" encoding="utf-8"?>
<!-- Generator: Adobe Illustrator 27.0.0, SVG Export Plug-In . SVG Version: 6.00 Build 0)  -->
<svg version="1.1" id="Capa_1" xmlns="http://www.w3.org/2000/svg" xmlns:xlink="http://www.w3.org/1999/xlink" x="0px" y="0px"
	 viewBox="0 0 512 512" style="enable-background:new 0 0 512 512;" xml:space="preserve">
<style type="text/css">
	.st0{fill:#FFFFFF;stroke:#000000;stroke-width:3.6773;stroke-miterlimit:10;}
	.st1{fill:#FDD204;}
	.st2{fill:#FFFFFF;}
	.st3{fill:none;stroke:#000000;stroke-width:3.6773;stroke-linecap:round;stroke-miterlimit:10;}
</style>
<g>
	<rect x="271.7" y="396.4" class="st0" width="35.9" height="30.3"/>
	<g>
		<path class="st1" d="M164.6,392.2c-14.2,0-25.8-11.6-25.8-25.8V196.3c0-14.2,11.6-25.8,25.8-25.8h251.1
			c14.2,0,25.8,11.6,25.8,25.8v170.1c0,14.2-11.6,25.8-25.8,25.8H164.6z"/>
		<g>
			<path class="st2" d="M415.7,176.7c10.8,0,19.6,8.8,19.6,19.6v170.1c0,10.8-8.8,19.6-19.6,19.6H164.6c-10.8,0-19.6-8.8-19.6-19.6
				V196.3c0-10.8,8.8-19.6,19.6-19.6H415.7 M415.7,164.4H164.6c-17.5,0-31.9,14.4-31.9,31.9v170.1c0,17.5,14.4,31.9,31.9,31.9h251.1
				c17.5,0,31.9-14.4,31.9-31.9V196.3C447.6,178.8,433.3,164.4,415.7,164.4L415.7,164.4z"/>
		</g>
	</g>
	<g>
		<g>
			<path d="M415.7,168.1c15.6,0,28.2,12.7,28.2,28.2v170.1c0,15.6-12.7,28.2-28.2,28.2H164.6c-15.6,0-28.2-12.7-28.2-28.2V196.3
				c0-15.6,12.7-28.2,28.2-28.2H415.7 M415.7,164.4H164.6c-17.5,0-31.9,14.4-31.9,31.9v170.1c0,17.5,14.4,31.9,31.9,31.9h251.1
				c17.5,0,31.9-14.4,31.9-31.9V196.3C447.6,178.8,433.3,164.4,415.7,164.4L415.7,164.4z"/>
		</g>
	</g>
	<g>
		<path class="st2" d="M89.5,226.6H78.9c-7.2,0-13-5.8-13-13l0,0c0-7.2,5.8-13,13-13H180v25.9h-71.3"/>
		<g>
			<path class="st1" d="M66.6,202.3h115.1c2.9,0,5.3-2.1,5.3-4.6v-22.2v-29.3V72.1c0-3.1-3-5.6-6.7-5.6h-103
				c-5.9,0-10.7,4.1-10.7,9.1V191l0,0l0,0C66.6,191,66.6,202.3,66.6,202.3z"/>
		</g>
		<path class="st3" d="M89.4,227.2h-9.7c-7.4,0-13.3-6-13.3-13.3l0,0c0-7.4,6-13.3,13.3-13.3H182c2.8,0,5-2.2,5-5V73.1
			c0-3.7-3-6.7-6.7-6.7H77.1c-5.9,0-10.8,4.8-10.8,10.8V214"/>
		<line class="st3" x1="187.1" y1="227.2" x2="86.5" y2="227.2"/>
		<line class="st3" x1="179.8" y1="202" x2="179.8" y2="226.6"/>
		<line class="st3" x1="106.2" y1="102.8" x2="147.4" y2="102.8"/>
		<line class="st3" x1="116.5" y1="117.7" x2="137.1" y2="117.7"/>
	</g>
	<g>
		<path class="st2" d="M408.8,213.8c-5.2,0-9.4-4.2-9.4-9.4s4.2-9.4,9.4-9.4c5.2,0,9.4,4.2,9.4,9.4
			C418.1,209.6,413.9,213.8,408.8,213.8z"/>
		<g>
			<path d="M408.8,196.9c4.1,0,7.5,3.4,7.5,7.5s-3.4,7.5-7.5,7.5s-7.5-3.4-7.5-7.5S404.6,196.9,408.8,196.9 M408.8,193.2
				c-6.2,0-11.2,5-11.2,11.2s5,11.2,11.2,11.2s11.2-5,11.2-11.2S414.9,193.2,408.8,193.2L408.8,193.2z"/>
		</g>
	</g>
	<g>
		<path class="st2" d="M377.4,213.8c-5.2,0-9.4-4.2-9.4-9.4s4.2-9.4,9.4-9.4c5.2,0,9.4,4.2,9.4,9.4
			C386.7,209.6,382.6,213.8,377.4,213.8z"/>
		<g>
			<path d="M377.4,196.9c4.1,0,7.5,3.4,7.5,7.5s-3.4,7.5-7.5,7.5s-7.5-3.4-7.5-7.5S373.2,196.9,377.4,196.9 M377.4,193.2
				c-6.2,0-11.2,5-11.2,11.2s5,11.2,11.2,11.2s11.2-5,11.2-11.2S383.6,193.2,377.4,193.2L377.4,193.2z"/>
		</g>
	</g>
	<g>
		<path class="st2" d="M346,213.8c-5.2,0-9.4-4.2-9.4-9.4s4.2-9.4,9.4-9.4c5.2,0,9.4,4.2,9.4,9.4S351.2,213.8,346,213.8z"/>
		<g>
			<path d="M346,196.9c4.1,0,7.5,3.4,7.5,7.5s-3.4,7.5-7.5,7.5s-7.5-3.4-7.5-7.5S341.9,196.9,346,196.9 M346,193.2
				c-6.2,0-11.2,5-11.2,11.2s5,11.2,11.2,11.2s11.2-5,11.2-11.2S352.2,193.2,346,193.2L346,193.2z"/>
		</g>
	</g>
	<g>
		<path class="st1" d="M223.5,446.1v-9.6c0-5.3,4.3-9.6,9.6-9.6h114.1c5.3,0,9.6,4.3,9.6,9.6v9.6H223.5z"/>
		<g>
			<path d="M347.2,428.6c4.3,0,7.8,3.5,7.8,7.8v7.8H225.3v-7.8c0-4.3,3.5-7.8,7.8-7.8H347.2 M347.2,425H233.1
				c-6.3,0-11.5,5.2-11.5,11.5V448h137.1v-11.5C358.7,430.1,353.6,425,347.2,425L347.2,425z"/>
		</g>
	</g>
</g>
</svg>
