<?xml version="1.0" encoding="utf-8"?>
<!-- Generator: Adobe Illustrator 27.0.0, SVG Export Plug-In . SVG Version: 6.00 Build 0)  -->
<svg version="1.1" id="Capa_1" xmlns="http://www.w3.org/2000/svg" xmlns:xlink="http://www.w3.org/1999/xlink" x="0px" y="0px"
	 viewBox="0 0 512 512" style="enable-background:new 0 0 512 512;" xml:space="preserve">
<style type="text/css">
	.st0{fill:#FDD204;}
	.st1{fill:#FFFFFF;}
	.st2{fill:none;stroke:#000000;stroke-width:3.6773;stroke-linecap:round;stroke-miterlimit:10;}
	.st3{fill:#FFFFFF;stroke:#000000;stroke-width:3.6773;stroke-linecap:round;stroke-miterlimit:10;}
	.st4{fill:#FDD204;stroke:#000000;stroke-width:3.6773;stroke-miterlimit:10;}
</style>
<g>
	<g>
		<path class="st0" d="M227.9,441c-14.8,0-26.8-12-26.8-26.8V170.9c0-14.8,12-26.8,26.8-26.8h186.8c14.8,0,26.8,12,26.8,26.8v243.4
			c0,14.8-12,26.8-26.8,26.8L227.9,441L227.9,441z"/>
		<g>
			<path class="st1" d="M414.8,150.2c11.4,0,20.7,9.3,20.7,20.7v243.4c0,11.4-9.3,20.7-20.7,20.7H227.9c-11.4,0-20.7-9.3-20.7-20.7
				V170.9c0-11.4,9.3-20.7,20.7-20.7H414.8 M414.8,138H227.9c-18.1,0-32.8,14.8-32.8,32.8v243.4c0,18.1,14.8,32.8,32.8,32.8h186.8
				c18.1,0,32.8-14.8,32.8-32.8V170.9C447.6,152.8,432.8,138,414.8,138L414.8,138z"/>
		</g>
	</g>
	<g>
		<g>
			<path class="st1" d="M366,270.5c-20.9-5.3-36.6-26.4-36.6-49.3v-20c0-2.6,1.6-5.1,4-6.1l29.9-13.3c0.8-0.4,1.8-0.6,2.7-0.6
				c0.9,0,1.9,0.2,2.7,0.6l29.9,13.3c2.4,1.1,4,3.5,4,6.1v20C402.5,244.1,386.8,265.2,366,270.5z"/>
		</g>
		<g>
			<path d="M366,183c0.7,0,1.3,0.1,2,0.4l29.9,13.3c1.8,0.8,2.9,2.5,2.9,4.4v20c0,21.9-14.9,42.1-34.7,47.4
				c-19.9-5.3-34.7-25.5-34.7-47.4v-20c0-1.9,1.1-3.7,2.9-4.4l29.9-13.3C364.6,183.2,365.3,183,366,183 M366,179.4
				c-1.2,0-2.4,0.2-3.5,0.7l-29.9,13.3c-3.1,1.4-5.1,4.4-5.1,7.8v20c0,23.7,16.4,45.8,38.4,51.2c22-5.4,38.4-27.5,38.4-51.2v-20
				c0-3.4-2-6.4-5.1-7.8l-29.9-13.3C368.3,179.6,367.2,179.4,366,179.4L366,179.4z"/>
		</g>
	</g>
	<g>
		<path d="M414.8,141.7c16.1,0,29.2,13.1,29.2,29.2v243.4c0,16.1-13.1,29.2-29.2,29.2H227.9c-16.1,0-29.2-13.1-29.2-29.2V170.9
			c0-16.1,13.1-29.2,29.2-29.2H414.8 M414.8,138H227.9c-18.1,0-32.8,14.8-32.8,32.8v243.4c0,18.1,14.8,32.8,32.8,32.8h186.8
			c18.1,0,32.8-14.8,32.8-32.8V170.9C447.6,152.8,432.8,138,414.8,138L414.8,138z"/>
	</g>
	<line class="st2" x1="237.1" y1="379.5" x2="404.6" y2="379.5"/>
	<line class="st2" x1="237.1" y1="305.1" x2="404.6" y2="305.1"/>
	<line class="st2" x1="237.1" y1="342.3" x2="404.6" y2="342.3"/>
	<line class="st2" x1="237.1" y1="267.9" x2="312.5" y2="267.9"/>
	<line class="st2" x1="237.1" y1="193.4" x2="312.5" y2="193.4"/>
	<line class="st2" x1="237.1" y1="230.6" x2="312.5" y2="230.6"/>
	<polyline class="st3" points="352.1,225.9 361.3,235.1 381.5,215 	"/>
	<path class="st4" d="M217.3,169.7l-39.9-23l39.9-23c2.3-1.4,3.1-4.4,1.8-6.7l-12.4-21.5c-1.4-2.3-4.4-3.1-6.7-1.8l-39.9,23V70.6
		c0-2.7-2.2-4.9-4.9-4.9h-24.8c-2.7,0-4.9,2.2-4.9,4.9v46.1l-39.9-23c-2.3-1.4-5.3-0.6-6.7,1.8L66.5,117c-1.4,2.3-0.6,5.3,1.8,6.7
		l39.9,23l-39.9,23c-2.3,1.4-3.1,4.4-1.8,6.7l12.4,21.5c1.4,2.3,4.4,3.1,6.7,1.8l39.9-23v46.1c0,2.7,2.2,4.9,4.9,4.9h24.8
		c2.7,0,4.9-2.2,4.9-4.9v-46.1l39.9,23c2.3,1.4,5.3,0.6,6.7-1.8l12.4-21.5C220.4,174.1,219.6,171.1,217.3,169.7z"/>
</g>
</svg>
